<svg id="Layer_1_copy_5" data-name="Layer 1 copy 5" xmlns="http://www.w3.org/2000/svg" viewBox="0 0 29.7 29.7">
    <defs>
        <style>.cls-1{font-size:3.8px;}.cls-1,.cls-2{fill:#fff;font-family:Georgia-Bold,
            Georgia;font-weight:700;}.cls-2{font-size:6.79px;}
        </style>
    </defs>
    <title>_01_languages logos [Recovered]</title>
    <path d="M9.87,2a12.61,12.61,0,0,1,1.29-.67.63.63,0,0,1,.56.16c.9,1.08.91,1.14,2.22.6a4.14,4.14,0,0,1,2.36-.35,10.43,10.43,0,0,0,2.05-.17A4.19,4.19,0,0,1,20.64,2a17.44,17.44,0,0,0,1.55.81.8.8,0,0,1,.54.66q.18,1.16.35,2.31c0,.22,0,.45.07.67a.48.48,0,0,1-.69-.13,2.07,2.07,0,0,0-2.37-.59c-1,.28-2,.4-2.94.66A6,6,0,0,0,15.86,7c-.09.05-.13.2-.2.3l.07.15,2.7-.37A2.75,2.75,0,0,0,18.92,7a2.16,2.16,0,0,1,2.38.63c.79.79,1.62,1.53,2.45,2.28a2.94,2.94,0,0,1,1,1.62c.37,1.81.73,3.62,1.08,5.44a5.18,5.18,0,0,1-.36,2.79c-.72,1.93-1.48,3.84-2.25,5.76a3.19,3.19,0,0,1-2.07,1.94c-.71.23-1.42.49-2.13.74a1.85,1.85,0,0,1-1.41-.08,2.38,2.38,0,0,1-.32-.16,3.28,3.28,0,0,0-3.06-.25,6.87,6.87,0,0,1-3.53.53,3.62,3.62,0,0,1-2.53-1.57,31.7,31.7,0,0,1-3.6-7.42,25,25,0,0,1-.76-2.87A4.57,4.57,0,0,1,4,13.87c.53-1.53,1.09-3.06,1.71-4.57A3,3,0,0,1,9,7.23c.92,0,1.83.14,2.75.21a2.45,2.45,0,0,0,.4,0c.53,0,.7-.31.47-.79S12,5.52,11.68,5c-.21-.36-.47-.7-.69-1.06C10.62,3.31,10.27,2.69,9.87,2ZM22,3.35a1.56,1.56,0,0,0-.4-.14c-.24,0-.48,0-.72,0a.69.69,0,0,1-.77-.51l.28-.25a4.4,4.4,0,0,0-5.08.9c-1,1.05-1,2.43-1.27,3.79L14.25,7a5.4,5.4,0,0,1,3.14-1.21,7.37,7.37,0,0,0,2.8-.59c.6-.27,1.21-.52,1.81-.78V4.34l-2.5-.18s-.08,0-.13,0a1.93,1.93,0,0,1-1.52-.4,1.32,1.32,0,0,1,.35-.14h2.24a2.52,2.52,0,0,0,.54,0C21.33,3.6,21.64,3.48,22,3.35ZM13.67,7.07l.12,0c.36-1.87.45-3.89,2.58-4.8l-.06-.11-1.76-.13-.05.19.59.47L15,2.91a6.88,6.88,0,0,1-1-.2,1.93,1.93,0,0,0-1.38,0l.58,2.1-.31-.09Z"/>
    <text class="cls-1" transform="translate(8.54 15.36)">I LIKE</text>
    <text class="cls-2" transform="translate(7.48 21.06)">APL</text>
</svg>