<svg id="Layer_1_copy" data-name="Layer 1 copy" xmlns="http://www.w3.org/2000/svg" viewBox="0 0 29.7 29.7">
    <defs>
        <style>.cls-1{fill:#28334c;}</style>
    </defs>
    <title>_01_languages logos</title>
    <path class="cls-1"
          d="M12,5.1c0,.15,0,.27-.29.39a3.33,3.33,0,0,0-1.57-.22c-.61,0-1.13.25-1.05.66s.69.66,1.74.56c2.57-.22,2.55-2,6.33-2.3,2.94-.27,4.59.64,4.81,1.74.17.86-.54,1.69-2.67,1.86-1.89.17-3-.34-3.09-.86,0-.27.1-.66,1-.76.1.42.61.86,1.84.74.88-.07,1.62-.39,1.52-.88s-1-.81-2.5-.69c-3,.27-3.73,1.91-6.28,2.13C10,7.65,8.51,7,8.32,6c-.07-.37-.07-1.23,1.84-1.4,1-.07,1.77.1,1.86.49ZM2.46,15.35a5.08,5.08,0,0,0-1.13,3.48,4,4,0,0,0,1.59,2.94,3.85,3.85,0,0,0,3.24.76,11,11,0,0,0,1.45-.47,4.08,4.08,0,0,1-2.65-1,4,4,0,0,1-1.67-2.72,3.65,3.65,0,0,1,.59-2.89A3.83,3.83,0,0,1,6.53,14a4.63,4.63,0,0,1,3.09.91,6.69,6.69,0,0,0-.83-.83,4,4,0,0,0-3.33-.66,5,5,0,0,0-3,1.91ZM15.6,9.68a39.31,39.31,0,0,1-8-.76C5.4,8.38,4.25,7.79,4.25,7c0-.32.15-.59.59-.91-1.37.54-2.11,1-2.11,1.67S4,9.31,6.53,9.9a38,38,0,0,0,9,.91,37.55,37.55,0,0,0,9-.91c2.5-.59,3.7-1.37,3.7-2.11,0-.54-.54-1.05-1.52-1.45A.83.83,0,0,1,27.1,7c0,.76-1.13,1.37-3.41,1.89a37.85,37.85,0,0,1-8.09.78Zm9,2.12a40.7,40.7,0,0,1-9,.91,42.46,42.46,0,0,1-9.06-.91c-2.11-.54-3.23-1.13-3.63-1.74a22.3,22.3,0,0,0,2.5,7.35c.91,1.37,1.81,2.57,2.72,3.87A9.5,9.5,0,0,1,9,23.56a4.39,4.39,0,0,0,2.5,1.67,10.21,10.21,0,0,0,4,.59h.15a11.39,11.39,0,0,0,4.14-.59,4.68,4.68,0,0,0,2.43-1.67h.07A9.22,9.22,0,0,1,23,21.29c.91-1.3,1.81-2.5,2.72-3.87a23.68,23.68,0,0,0,2.5-7.35c-.49.69-1.62,1.27-3.65,1.74Z"/>
</svg>