<svg id="Layer_1_copy_7" data-name="Layer 1 copy 7" xmlns="http://www.w3.org/2000/svg" viewBox="0 0 29.7 29.7">
    <defs>
        <style>.cls-1{fill:#2ba977;}.cls-2{fill:#fff;}</style>
    </defs>
    <title>django</title>
    <rect class="cls-1" x="1.367" y="1.478" width="26.849" height="26.849"/>
    <path class="cls-2"
          d="M13.434,3.048H17.3v17.7a25.543,25.543,0,0,1-5.01.521c-4.717,0-7.172-2.112-7.172-6.159,0-3.9,2.6-6.43,6.64-6.43a6.283,6.283,0,0,1,1.68.2V3.048Zm.135,9.019a3.888,3.888,0,0,0-1.3-.2c-1.953,0-3.082,1.191-3.082,3.279,0,2.033,1.079,3.155,3.057,3.155a9.112,9.112,0,0,0,1.327-.1v-6.14Z"/>
    <path class="cls-2"
          d="M23.611,9.155v8.862c0,3.052-.229,4.52-.9,5.785a6.154,6.154,0,0,1-3.156,2.831l-3.584-1.689a5.561,5.561,0,0,0,3.057-2.561c.552-1.093.726-2.358.726-5.686V9.156h3.857ZM19.365,3.048h3.862V6.972H19.365Z"/>
</svg>