<svg id="Layer_1_copy_5" data-name="Layer 1 copy 5" xmlns="http://www.w3.org/2000/svg" viewBox="0 0 29.7 29.7">
    <defs>
        <style>
            .cls-1{fill:none;stroke:gray;stroke-width:0.31px;stroke-dasharray:1.16;}.cls-2{fill:navy;}.cls-3{fill:#fff;}
        </style>
    </defs>
    <title>_01_languages logos [Recovered]</title>
    <path class="cls-1" d="M26.74,8.82a13.33,13.33,0,1,1-4.62-5.13"/>
    <circle class="cls-2" cx="14.86" cy="14.87" r="10.31"/>
    <circle class="cls-3" cx="19.13" cy="10.6" r="3.02"/>
    <circle class="cls-2" cx="25.17" cy="4.56" r="3.02"/>
    <path class="cls-3" d="M12.06,20v-.76H8.73v-6H7.86V20h4.2"/>
    <path class="cls-3"
          d="M16.7,20V15.15h-.76v2.69c0,1-.52,1.64-1.33,1.64a.92.92,0,0,1-1-1V15.18h-.76v3.66c0,.8.6,1.32,1.55,1.32A1.8,1.8,0,0,0,16,19.28V20h.67"/>
    <path class="cls-3"
          d="M22.36,20v-.58l-.17,0c-.27,0-.42-.14-.42-.38v-2.7c0-.86-.62-1.33-1.8-1.33s-1.87.45-1.92,1.58h.77c.06-.59.41-.86,1.12-.86S21,16,21,16.47v.19c0,.32-.19.46-.81.54a5.55,5.55,0,0,0-1.56.3,1.28,1.28,0,0,0-.85,1.26c0,.88.61,1.4,1.6,1.4A2.28,2.28,0,0,0,21,19.45a.82.82,0,0,0,.8.64,1.89,1.89,0,0,0,.53-.08M21,18.35a1.32,1.32,0,0,1-1.46,1.14c-.6,0-1-.21-1-.74s.34-.73,1.17-.85A3.85,3.85,0,0,0,21,17.62v.71"/>
</svg>