<svg id="Fixing_sizes" data-name="Fixing sizes" xmlns="http://www.w3.org/2000/svg" viewBox="0 0 29.7 29.7">
    <defs>
        <style>.cls-1{fill:#8993be;}.cls-2{fill:#232531;}</style>
    </defs>
    <title>_02_languages logos [Recovered]</title>
    <path class="cls-1"
          d="M14.84,7.6c8.06,0,14.53,3.12,14.53,7.32s-6.53,7.6-14.59,7.6S.19,19.12.19,14.92,6.79,7.6,14.84,7.6Z"/>
    <path class="cls-2"
          d="M9.58,11.32H5.88l-1.6,8.1h1.9l.4-2.1h1.8a3.54,3.54,0,0,0,3.6-3.7C12,12.22,11.18,11.42,9.58,11.32Zm-1.4,4.5H7l.5-3h1.3c.7,0,1.2.3,1.2.9C9.88,15.42,9.08,15.72,8.18,15.82Z"/>
    <path class="cls-2"
          d="M11.61,17.32l1.6-8.1h1.9l-.4,2.1h1.8c1.6.1,2.2.9,2,1.9l-.7,4.1h-2l.7-3.7c.1-.5.1-.8-.6-.8h-1.5l-.9,4.5Z"/>
    <path class="cls-2"
          d="M23,11.32h-3.7l-1.6,8.1h1.9l.4-2.1h1.8a3.54,3.54,0,0,0,3.6-3.7C25.37,12.22,24.58,11.42,23,11.32Zm-1.4,4.5h-1.2l.5-3h1.3c.7,0,1.2.3,1.2.9C23.28,15.42,22.48,15.72,21.58,15.82Z"/>
</svg>