<svg id="Fixing_sizes" data-name="Fixing sizes" xmlns="http://www.w3.org/2000/svg" viewBox="0 0 29.7 29.7">
    <defs>
        <style>
            .cls-1{fill:#e7d48e;}.cls-2{fill:#e8d48f;}.cls-3{fill:#deaad7;}.cls-4{fill:#4d4516;}.cls-5{fill:#4e4617;}.cls-6{fill:#e6d28d;}.cls-7{fill:#deaad6;}.cls-8{fill:#f5f5f3;}.cls-9{fill:#f4f3f1;}.cls-10{fill:#080705;}
        </style>
    </defs>
    <title>_02_languages logos [Recovered]</title>
    <path class="cls-1"
          d="M5.25,21,3.33,22.07H1.48A2.67,2.67,0,0,1,1.11,22l-.9-1.73,0-.13c.06,0,.12,0,.15-.1a1.77,1.77,0,0,1,1.44-.82,6.3,6.3,0,0,0,2.75-.89,5.34,5.34,0,0,1,2.09-.52,4.38,4.38,0,0,0,.6-.17,2.54,2.54,0,0,0,.37-.06l3.84-1.15a.6.6,0,0,1,.31-.05c.38.13.76.29,1.16.44-.31.43-.59.82-.89,1.2a.57.57,0,0,1-.24.15c-.52.2-1,.4-1.58.58a4.8,4.8,0,0,1-.89.24c-.7.09-1.41.16-2.11.23a.67.67,0,0,0,.27.12c1.08.26,2.16.55,3.25.77a1.26,1.26,0,0,1,.89.73,1.57,1.57,0,0,1-.28.05L8.92,21H7.4s-.05,0-.08,0l-1.95,0S5.29,21,5.25,21Z"/>
    <path class="cls-2"
          d="M15.68,24.17c.06.48-.26.62-.62.77-.94.41-1.86.86-2.79,1.28L10.45,27c-.38.17-.77.36-1.14.56a1,1,0,0,0-.27.33l-.31.46L8,28.73c-.38-.06-.75-.13-1.12-.18s-.5,0-.49-.53c0-.31,0-.62,0-.93s.1-.25.26-.29c.45-.12.89-.27,1.34-.37a3.51,3.51,0,0,0,1.37-.83c.9-.7,1.79-1.42,2.68-2.13l1-.79a1.65,1.65,0,0,1,1-.49H15.9C15.82,22.83,15.75,23.5,15.68,24.17Z"/>
    <path class="cls-2"
          d="M29.34,27.18v.26a3.81,3.81,0,0,0-.25.45.73.73,0,0,1-.62.53.88.88,0,0,0-.25.06c-.82.41-1.39-.17-2-.5s-.64-.77-.85-1.22c-.31-.65-.59-1.32-.85-2-.1-.27-.37-.52-.21-.86a2.62,2.62,0,0,0,.23-.22c.3-.36.59-.72.9-1.11l1.72,1.27,1.77,2.75C29,26.81,29.19,27,29.34,27.18Z"/>
    <path class="cls-3"
          d="M22.49,1.23a8.32,8.32,0,0,0,.62.86,2.36,2.36,0,0,1,.54,1.22c.18,1,.37,2,.55,2.93a.45.45,0,0,1,0,.32c-.33.43-.68.83-1,1.25l-1-1.23a.92.92,0,0,1-.19-.29c-.21-.84-.41-1.69-.62-2.54-.12-.47.19-.8.37-1.16l.69-1.35Z"/>
    <path class="cls-4"
          d="M27.14,23.85l-1.72-1.27-.9,1.11a2,2,0,0,1-.23.22l-1.49-1.62c-.09.3-.15.55-.24.79a.61.61,0,0,1-.24.3c-.44.26-.87.5-1.33.72a.91.91,0,0,1-.5.05c-1-.13-1.93-.27-2.89-.43a1.82,1.82,0,0,0-1.28.17,4.79,4.79,0,0,1-.64.27c.07-.67.14-1.34.2-2H14l.36-.45c-.31-.27-.62-.54-.93-.79a.42.42,0,0,0-.24-.06H11.82a.54.54,0,0,1-.16,0,1.25,1.25,0,0,0-.89-.73c-1.09-.23-2.17-.51-3.25-.77a.71.71,0,0,1-.27-.12c.7-.08,1.42-.13,2.11-.23a4.8,4.8,0,0,0,.89-.24c.53-.18,1.05-.38,1.58-.58a.61.61,0,0,0,.24-.15c.3-.38.58-.77.89-1.2-.41-.16-.78-.31-1.16-.44a.6.6,0,0,0-.31.05L7.65,17.6a2.54,2.54,0,0,1-.37.06c.94-.81,1.93-1.57,2.8-2.45a6.51,6.51,0,0,1,3.42-1.68c.89-.2,1.76-.47,2.64-.7.79.77,1.57,1.55,2.37,2.31a.66.66,0,0,0,.34.12c.62.08,1.23.15,1.85.21a.89.89,0,0,0,.44-.08c.57-.27,1.12-.56,1.69-.83a.67.67,0,0,0,.46-.49,2.9,2.9,0,0,1,.17.36l1.44,4.69a1.73,1.73,0,0,0,.23.47c.67,1,1.35,1.92,2,2.88a.83.83,0,0,1,.12.47C27.24,23.24,27.19,23.54,27.14,23.85Z"/>
    <path class="cls-5"
          d="M21.34,3.75c.2.85.4,1.69.62,2.54a.83.83,0,0,0,.19.29l1,1.23c.08.66.17,1.33.25,2L23,9.51l-.66,2.41c-.38-.26-.66-.62-1-.83l0,.07.45,1.46-2.6.53v-2h-.07L18,12.95l-1.71-2.24c0,.27-.06.48-.08.68-.34-.26-.31-.67-.4-1,0-.17-.08-.33-.12-.5l1-.68-3-3.46a2.53,2.53,0,0,1,.36.09l2.34,1a.73.73,0,0,0,.38,0l3.68-.7a.33.33,0,0,0,.29-.3c.14-.64.3-1.28.45-1.92A.41.41,0,0,1,21.34,3.75ZM17.06,11h1.53l-.94-1Zm4.37-.79,1.22-.77-1.22-.34Z"/>
    <path class="cls-6"
          d="M16.18,11.38c0-.2,0-.4.08-.68L18,12.95,19,11.14h.07v2l2.6-.53-.45-1.46,0-.07c.37.21.64.56,1,.83L23,9.51l.37.3c.36.3.24.69.2,1.07-.05.54-.12,1.07-.16,1.61s-.08,1.05-.12,1.58a.67.67,0,0,1-.46.49c-.57.27-1.12.56-1.69.83a.88.88,0,0,1-.44.08c-.62-.06-1.23-.13-1.85-.21a.68.68,0,0,1-.34-.12l-2.36-2.32C16.14,12.34,16.16,11.86,16.18,11.38ZM21,14.75l.44-1.6-1.72.32Z"/>
    <path class="cls-7"
          d="M13.7,5.72l3,3.46-1,.68a6.77,6.77,0,0,1-.75-.36q-1.34-.85-2.66-1.72a.47.47,0,0,1-.16-.22C12,7,11.81,6.42,11.64,5.85c-.07-.23,0-.32.22-.32.47,0,.95,0,1.42-.06A.36.36,0,0,1,13.7,5.72Z"/>
    <path class="cls-8" d="M17.06,11l.58-1,.94,1Z"/>
    <path class="cls-9" d="M21.43,10.22V9.12l1.22.34Z"/>
    <path class="cls-10" d="M21,14.75l-1.28-1.28,1.72-.32Z"/>
</svg>