<svg id="Layer_1_copy_3" data-name="Layer 1 copy 3" xmlns="http://www.w3.org/2000/svg" viewBox="0 0 29.7 29.7">
    <title>_01_languages logos [Recovered]</title>
    <path id="path3"
          d="M28.16,14.57,27,13.87q0-.17,0-.33l1-.91a.39.39,0,0,0-.13-.65l-1.24-.46-.1-.32.78-1.08A.39.39,0,0,0,27,9.52L25.71,9.3,25.56,9l.55-1.21a.39.39,0,0,0-.37-.55l-1.33,0L24.2,7l.31-1.3A.39.39,0,0,0,24,5.28l-1.3.31-.26-.21,0-1.33A.39.39,0,0,0,22,3.67l-1.21.55-.29-.16-.21-1.31a.39.39,0,0,0-.61-.25l-1.08.78-.32-.1-.46-1.24a.39.39,0,0,0-.65-.13l-.91,1-.33,0-.7-1.13a.39.39,0,0,0-.66,0l-.7,1.13-.33,0-.91-1a.39.39,0,0,0-.65.13l-.46,1.24-.32.1L10.1,2.5a.39.39,0,0,0-.61.25L9.27,4.07,9,4.22,7.77,3.67A.39.39,0,0,0,7.22,4l0,1.33L7,5.58l-1.3-.31a.39.39,0,0,0-.47.47L5.55,7l-.21.25L4,7.25a.39.39,0,0,0-.37.55L4.19,9,4,9.3l-1.31.21a.39.39,0,0,0-.25.61l.78,1.08-.1.32L1.91,12a.39.39,0,0,0-.13.65l1,.91c0,.11,0,.22,0,.33l-1.13.7a.39.39,0,0,0,0,.66l1.13.7q0,.17,0,.33l-1,.91a.39.39,0,0,0,.13.65l1.24.46.1.32-.78,1.08a.39.39,0,0,0,.25.61L4,20.51l.16.29L3.64,22a.39.39,0,0,0,.37.55l1.33,0,.21.26-.31,1.3a.39.39,0,0,0,.47.47L7,24.23l.26.21,0,1.33a.39.39,0,0,0,.55.37L9,25.59l.29.16.21,1.31a.39.39,0,0,0,.61.25l1.08-.78.32.1L12,27.87a.39.39,0,0,0,.65.13l.91-1,.33,0,.7,1.13a.39.39,0,0,0,.66,0l.7-1.13.33,0,.91,1a.39.39,0,0,0,.65-.13l.46-1.24.32-.1,1.08.78a.39.39,0,0,0,.61-.25l.21-1.31.29-.16,1.21.55a.39.39,0,0,0,.55-.37l0-1.33.26-.21,1.3.31a.39.39,0,0,0,.47-.47l-.31-1.3.21-.26,1.33,0a.39.39,0,0,0,.37-.55l-.55-1.21.16-.29L27,20.3a.39.39,0,0,0,.25-.61l-.78-1.08.1-.32,1.24-.46a.39.39,0,0,0,.13-.65l-1-.91c0-.11,0-.22,0-.33l1.13-.7a.39.39,0,0,0,0-.66ZM20.59,24a.8.8,0,1,1,1-.62A.8.8,0,0,1,20.59,24Zm-.32-2.49a.74.74,0,0,0-.88.57L19,23.94a10,10,0,0,1-8.34,0L10.23,22a.73.73,0,0,0-.87-.56l-1.69.36a10,10,0,0,1-.87-1h8.1c.09,0,.15,0,.15-.11v-3c0-.09-.06-.11-.15-.11H12.59V15.83h2.59a1.63,1.63,0,0,1,1.59,1.38c.1.4.33,1.72.48,2.14s.78,1.41,1.45,1.41h4.22A10,10,0,0,1,22,21.83l-1.72-.37ZM9.07,23.92a.8.8,0,1,1,.61-1A.8.8,0,0,1,9.07,23.92ZM6,11.54A.8.8,0,1,1,5,11.13.8.8,0,0,1,6,11.54Zm-.9,2.27L6.83,13a.73.73,0,0,0,.37-1l-.35-.79H8.23v6.25H5.44a9.8,9.8,0,0,1-.37-2.69A9.91,9.91,0,0,1,5.12,13.8Zm7.47-.62v-1.9H16c.18,0,1.24.2,1.24,1s-.82.9-1.49.9H12.59Zm12.18,1.72q0,.37,0,.74h-1c-.1,0-.14.07-.14.17v.47c0,1.11-.62,1.35-1.17,1.41s-1.1-.22-1.17-.54a3.52,3.52,0,0,0-1.63-2.73,3.68,3.68,0,0,0,2-2.83A3.2,3.2,0,0,0,20.1,9,4.44,4.44,0,0,0,18,8.26H7.38A10,10,0,0,1,13,5.11l1.25,1.31a.74.74,0,0,0,1,0l1.4-1.33A10,10,0,0,1,23.47,10l-1,2.16a.74.74,0,0,0,.38,1l1.84.82q0,.49,0,1ZM14.28,4a.8.8,0,1,1,0,1.13A.8.8,0,0,1,14.28,4Zm9.36,7.54a.8.8,0,1,1,.41,1.06A.8.8,0,0,1,23.65,11.57Z"/>
</svg>