<svg xmlns="http://www.w3.org/2000/svg" id="Layer_1" data-name="Layer 1" viewBox="0 0 171.6 171.6"><defs><style>.cls-1{fill:#989ba1}.cls-2{fill:#929497}</style></defs><title>light logo</title><path d="M176.944,79.313c.213,2.361.362,4.744.362,7.161h0C177.306,84.056,177.157,81.674,176.944,79.313Z" class="cls-1"/><path d="M61.23,78.9s-21.689,79.918,65.248,80.614A77.991,77.991,0,0,0,176.9,94.45c.211-2.076.274-4.193.32-6.315.009-.559.083-1.1.083-1.662,0-2.418-.148-4.8-.362-7.161C153.976,169.731,52.367,134.314,61.23,78.9Z" class="cls-1"/><path d="M106.184,49.235s-80.938-22.6-79.7,65.657a78.218,78.218,0,0,0,18.863,28.2c.343.329.707.64,1.059.964a78.272,78.272,0,0,0,7.4,6.029c.4.287.779.6,1.182.883a77.676,77.676,0,0,0,8.539,5.07c.858.442,1.734.845,2.61,1.256a77.183,77.183,0,0,0,7.8,3.165c.651.223,1.275.5,1.935.708a77.317,77.317,0,0,0,9.705,2.3c.992.176,2,.32,3,.458a78.24,78.24,0,0,0,10.278.8c.132,0,.26.02.392.02,2.594,0,5.155-.138,7.682-.388C16.1,142.689,50.633,41.133,106.184,49.235Z" class="cls-2"/><path d="M137.734,91.091s19.151-80.736-67.051-77.129A77.2,77.2,0,0,0,22.115,97.079C40.258,5.732,143.612,35.309,137.734,91.091Z" class="cls-1"/><path d="M96.345,125.835s81.086,10.586,76.01-66.507A77.559,77.559,0,0,0,85.163,9.815C175.516,20.906,152.033,126.625,96.345,125.835Z" class="cls-1"/><path d="M121.818,86.475a21.847,21.847,0,1,1-21.84-21.848A21.846,21.846,0,0,1,121.818,86.475Z" class="cls-1"/></svg>