<svg id="Layer_1_copy_2" data-name="Layer 1 copy 2" xmlns="http://www.w3.org/2000/svg"
     xmlns:xlink="http://www.w3.org/1999/xlink" viewBox="0 0 29.7 29.7">
    <defs>
        <style>.cls-1{fill:url(#linear-gradient);}</style>
        <linearGradient id="linear-gradient" x1="1007.16" y1="-390.88" x2="1007.16" y2="-391.56"
                        gradientTransform="matrix(39.62, 0, 0, -35.5, -39888.74, -13874.74)"
                        gradientUnits="userSpaceOnUse">
            <stop offset="0" stop-color="#f88a36"/>
            <stop offset="1" stop-color="#fd2020"/>
        </linearGradient>
    </defs>
    <title>_01_languages logos [Recovered]</title>
    <path class="cls-1"
          d="M21.66,25.2c-3.16,1.83-7.5,2-11.87.14a18.57,18.57,0,0,1-8.36-7.15,14.08,14.08,0,0,0,3.09,1.88c4.51,2.12,9,2,12.2,0h0A64.8,64.8,0,0,1,5.49,8.4,12.89,12.89,0,0,1,4,6.37a86.9,86.9,0,0,0,10.92,8.28A80.45,80.45,0,0,1,7.23,5,76.37,76.37,0,0,0,19.88,15.4l.48.29a9.91,9.91,0,0,0,.35-1c1.05-3.84-.15-8.21-2.79-11.82,6.1,3.69,9.71,10.62,8.21,16.41q-.06.23-.13.46l.05.06c3,3.76,2.18,7.76,1.81,7-1.63-3.2-4.66-2.22-6.2-1.57Z"/>
</svg>