<svg id="Layer_1_copy_2" data-name="Layer 1 copy 2" xmlns="http://www.w3.org/2000/svg" viewBox="0 0 29.7 29.7">
    <title>_01_languages logos [Recovered]</title>
    <g id="layer1">
        <g id="g8">
            <path id="path10"
                  d="M23.33,22.68H24A7.6,7.6,0,0,1,23,27a2.87,2.87,0,0,1-2.42,1.35,3.57,3.57,0,0,1-2.27-.88q-1.09-.88-2-4.79L14.74,15.4,9.15,28.09H5.54l8.08-17.4a17.45,17.45,0,0,0-1.55-5A2.62,2.62,0,0,0,9.82,4.06,2.53,2.53,0,0,0,8,4.88a3.92,3.92,0,0,0-.91,2.55h-.7A8.53,8.53,0,0,1,7.47,3,3.14,3.14,0,0,1,10.12,1.3,2.82,2.82,0,0,1,12,2.13,6.84,6.84,0,0,1,13.63,5q.68,2,2.1,8.43l1.34,6a15.16,15.16,0,0,0,1.7,5,2.65,2.65,0,0,0,2.16,1.27Q23,25.67,23.33,22.68Z"/>
        </g>
    </g>
</svg>